<?xml version="1.0" encoding="UTF-8" standalone="no"?>
<svg
   xmlns:dc="http://purl.org/dc/elements/1.1/"
   xmlns:cc="http://creativecommons.org/ns#"
   xmlns:rdf="http://www.w3.org/1999/02/22-rdf-syntax-ns#"
   xmlns:svg="http://www.w3.org/2000/svg"
   xmlns="http://www.w3.org/2000/svg"
   xmlns:sodipodi="http://sodipodi.sourceforge.net/DTD/sodipodi-0.dtd"
   xmlns:inkscape="http://www.inkscape.org/namespaces/inkscape"
   id="svg8"
   version="1.1"
   viewBox="0 0 43.899937 50.851597"
   height="50.851597mm"
   width="43.899933mm"
   inkscape:version="0.48.4 r9939"
   sodipodi:docname="Version4.svg"
   inkscape:export-filename="/home/ines/Escritorio/Satrday/SatRday-Santiago/logos_iniciales/Version4.png"
   inkscape:export-xdpi="300"
   inkscape:export-ydpi="300">
  <sodipodi:namedview
     pagecolor="#ffffff"
     bordercolor="#666666"
     borderopacity="1"
     objecttolerance="10"
     gridtolerance="10"
     guidetolerance="10"
     inkscape:pageopacity="0"
     inkscape:pageshadow="2"
     inkscape:window-width="1861"
     inkscape:window-height="1056"
     id="namedview32"
     showgrid="false"
     inkscape:zoom="3.7046193"
     inkscape:cx="40.609347"
     inkscape:cy="76.470922"
     inkscape:window-x="59"
     inkscape:window-y="24"
     inkscape:window-maximized="1"
     inkscape:current-layer="svg8" />
  <defs
     id="defs2">
    <clipPath
       id="clipPath16429"
       clipPathUnits="userSpaceOnUse">
      <path
         style="opacity:1;vector-effect:none;fill:#2165b6;fill-opacity:1;fill-rule:nonzero;stroke:none;stroke-width:1.5715543;stroke-linecap:butt;stroke-linejoin:round;stroke-miterlimit:4;stroke-dasharray:none;stroke-dashoffset:0;stroke-opacity:1;paint-order:normal"
         id="path16431"
         d="M 201.08333,-1.3279266 70.566552,-76.68182 l -4e-6,-150.70779 130.516772,-75.35391 130.51678,75.3539 10e-6,150.707793 z"
         transform="matrix(0.16817761,0,0,0.16853807,31.673538,-48.729121)" />
    </clipPath>
    <clipPath
       id="clipPath6975"
       clipPathUnits="userSpaceOnUse">
      <path
         transform="matrix(0.1157537,0,0,0.1160018,54.550292,192.37129)"
         d="M 201.08333,-1.3279266 70.566552,-76.68182 l -4e-6,-150.70779 130.516772,-75.35391 130.51678,75.3539 10e-6,150.707793 z"
         id="path6977"
         style="opacity:0.5;vector-effect:none;fill:#2165b6;fill-opacity:1;fill-rule:nonzero;stroke:none;stroke-width:1.5715543;stroke-linecap:butt;stroke-linejoin:round;stroke-miterlimit:4;stroke-dasharray:none;stroke-dashoffset:0;stroke-opacity:1;paint-order:normal" />
    </clipPath>
    <clipPath
       id="clipPath45"
       clipPathUnits="userSpaceOnUse">
      <path
         transform="matrix(0.16817761,0,0,0.16853807,-11.867746,297.17217)"
         d="M 201.08333,-1.3279266 70.566552,-76.68182 l -4e-6,-150.70779 130.516772,-75.35391 130.51678,75.3539 10e-6,150.707793 z"
         id="path47"
         style="opacity:1;vector-effect:none;fill:#2165b6;fill-opacity:1;fill-rule:nonzero;stroke:none;stroke-width:1.5715543;stroke-linecap:butt;stroke-linejoin:round;stroke-miterlimit:4;stroke-dasharray:none;stroke-dashoffset:0;stroke-opacity:1;paint-order:normal" />
    </clipPath>
  </defs>
  <metadata
     id="metadata5">
    <rdf:RDF>
      <cc:Work
         rdf:about="">
        <dc:format>image/svg+xml</dc:format>
        <dc:type
           rdf:resource="http://purl.org/dc/dcmitype/StillImage" />
        <dc:title></dc:title>
      </cc:Work>
    </rdf:RDF>
  </metadata>
  <path
     inkscape:connector-curvature="0"
     style="fill:#2165b6;fill-opacity:1;stroke:none"
     d="M 9.6446921e-7,38.125797 3.427628e-6,12.725798 21.94997,0.02579804 43.899934,12.7258 l 0,25.4 -21.949966,12.700001 z"
     id="path967" />
  <path
     inkscape:connector-curvature="0"
     id="path3359"
     style="font-size:19.85914993px;font-style:normal;font-variant:normal;font-weight:900;font-stretch:normal;text-align:start;line-height:1.25;letter-spacing:0px;word-spacing:0px;writing-mode:lr-tb;text-anchor:start;fill:#ffffff;fill-opacity:1;stroke:none;font-family:Arial;-inkscape-font-specification:'Arial, Heavy'"
     d="M 14.966027,32.54125 V 18.31042 h 7.313284 q 2.034158,0 3.109356,0.34946 1.075198,0.34947 1.733877,1.30078 0.65868,0.9416 0.65868,2.30061 0,1.18429 -0.503696,2.04823 -0.503696,0.85424 -1.385165,1.38814 -0.561815,0.33975 -1.540148,0.56301 0.784604,0.2621 1.143003,0.52419 0.242162,0.17474 0.697426,0.74746 0.464951,0.57273 0.619933,0.88336 l 2.121338,4.12559 H 23.974443 L 21.630317,28.1924 Q 21.18474,27.34787 20.836027,27.09548 20.36139,26.76543 19.760829,26.76543 H 19.37337 v 5.77582 z m 4.407343,-8.46473 h 1.850115 q 0.300281,0 1.162377,-0.19414 0.435891,-0.0874 0.707112,-0.44653 0.280907,-0.35917 0.280907,-0.82512 0,-0.68921 -0.43589,-1.05809 Q 22.5021,21.18377 21.300977,21.18377 H 19.37337 z" />
  <path
     inkscape:connector-curvature="0"
     id="path3362"
     style="font-size:9.86572075px;font-style:normal;font-variant:normal;font-weight:normal;font-stretch:condensed;text-align:start;line-height:1.25;letter-spacing:0px;word-spacing:0px;writing-mode:lr-tb;text-anchor:start;fill:#ffffff;fill-opacity:1;stroke:none;font-family:Agency FB;-inkscape-font-specification:'Agency FB, Condensed'"
     d="m 6.3143253,28.67372 q 0,0.23629 -0.1491748,0.38579 Q 6.0207878,29.209 5.7849955,29.209 H 3.8890326 q -0.2357923,0 -0.3897791,-0.14949 -0.1491748,-0.1495 -0.1491748,-0.38579 v -1.9145 H 4.018959 v 1.85662 H 5.6454449 V 26.81709 L 3.5666227,24.29978 q -0.216544,-0.26041 -0.216544,-0.57386 v -1.52871 q 0,-0.23629 0.1491748,-0.38579 0.1539868,-0.14949 0.3897791,-0.14949 h 1.8959629 q 0.2357923,0 0.380155,0.14949 0.1491748,0.1495 0.1491748,0.38579 v 1.75536 H 5.6454449 V 22.25508 H 4.018959 v 1.5914 l 2.0884465,2.5173 q 0.2069198,0.25076 0.2069198,0.56422 z" />
  <path
     inkscape:connector-curvature="0"
     id="path3364"
     style="font-size:9.86572075px;font-style:normal;font-variant:normal;font-weight:normal;font-stretch:condensed;text-align:start;line-height:1.25;letter-spacing:0px;word-spacing:0px;writing-mode:lr-tb;text-anchor:start;fill:#ffffff;fill-opacity:1;stroke:none;font-family:Agency FB;-inkscape-font-specification:'Agency FB, Condensed'"
     d="M 10.534526,29.209 H 9.8704585 L 9.6057937,27.5308 H 8.1092341 L 7.8445693,29.209 h -0.64482 V 29.1897 L 8.5423221,21.64263 H 9.2015782 z M 9.519176,26.93765 8.8599199,22.84824 8.1958517,26.93765 z" />
  <path
     inkscape:connector-curvature="0"
     id="path3369"
     style="font-size:9.86572075px;font-style:normal;font-variant:normal;font-weight:normal;font-stretch:condensed;text-align:start;line-height:1.25;letter-spacing:0px;word-spacing:0px;writing-mode:lr-tb;text-anchor:start;fill:#ffffff;fill-opacity:1;stroke:none;font-family:Agency FB;-inkscape-font-specification:'Agency FB, Condensed'"
     d="m 32.03771,27.84426 q 0,0.59798 -0.394591,0.98377 Q 31.25334,29.209 30.65664,29.209 h -1.722727 v -7.54707 h 1.722727 q 0.601511,0 0.991291,0.38579 0.389779,0.38097 0.389779,0.97895 z m -0.66888,-0.0675 v -4.69221 q 0,-0.37133 -0.235792,-0.59798 -0.230981,-0.23148 -0.601512,-0.23148 h -0.928733 v 6.36076 h 0.890237 q 0.389779,0 0.630383,-0.22182 0.245417,-0.22666 0.245417,-0.61727 z" />
  <path
     inkscape:connector-curvature="0"
     id="path3371"
     style="font-size:9.86572075px;font-style:normal;font-variant:normal;font-weight:normal;font-stretch:condensed;text-align:start;line-height:1.25;letter-spacing:0px;word-spacing:0px;writing-mode:lr-tb;text-anchor:start;fill:#ffffff;fill-opacity:1;stroke:none;font-family:Agency FB;-inkscape-font-specification:'Agency FB, Condensed'"
     d="m 36.243475,29.209 h -0.664068 l -0.264665,-1.6782 h -1.49656 l -0.264665,1.6782 h -0.64482 v -0.0193 l 1.342573,-7.54707 h 0.659257 z M 35.228124,26.93765 34.568868,22.84824 33.9048,26.93765 z" />
  <path
     inkscape:connector-curvature="0"
     id="path3373"
     style="font-size:9.86572075px;font-style:normal;font-variant:normal;font-weight:normal;font-stretch:condensed;text-align:start;line-height:1.25;letter-spacing:0px;word-spacing:0px;writing-mode:lr-tb;text-anchor:start;fill:#ffffff;fill-opacity:1;stroke:none;font-family:Agency FB;-inkscape-font-specification:'Agency FB, Condensed'"
     d="m 40.179764,21.70533 -0.914297,3.05258 q -0.173236,0.45813 -0.457149,1.52871 V 29.209 h -0.66888 v -2.92238 q -0.06737,-0.3665 -0.206921,-0.77159 -0.230979,-0.69442 -0.250227,-0.75712 l -0.914297,-3.05258 q 0,-0.005 0,-0.0434 h 0.678504 l 1.034599,3.77594 1.024975,-3.77594 h 0.673693 q 0,0.0337 0,0.0434 z" />
  <path
     style="color:#000000;fill:#800000;stroke:#000000;stroke-width:0.01502428000000000;stroke-linecap:square;stroke-linejoin:round"
     inkscape:connector-curvature="0"
     id="path8"
     d="m 12.265204,21.353961 c -0.03681,0.518169 -0.601629,0.77015 -0.81566,1.069795 -0.278158,0.389406 -0.146985,0.896793 0.259616,0.880414 0.08572,-0.0035 0.222764,-0.05222 0.206686,-0.188557 -0.01657,-0.140497 -0.254533,-0.107216 -0.182952,0.05783 -0.300212,0.01004 -0.260318,-0.440277 0.0039,-0.440806 0.311709,-5e-4 0.30257,0.304076 0.30257,0.655234 v 0.439382 h -0.908487 c -0.20306,0 -0.338049,-0.152852 -0.35102,-0.363022 -0.0072,-0.116584 0.03869,-0.180728 0.108906,-0.193069 0.303802,-0.0534 0.192474,0.50151 0.566229,0.50151 0.187218,-7.5e-4 0.228154,-0.219497 0.112279,-0.322768 -0.09128,-0.07179 -0.271136,-0.01154 -0.195452,0.1505 -0.187489,0.0043 -0.07969,-0.495685 -0.489429,-0.495685 -0.2659,0 -0.528044,0.369544 -0.124311,0.81645 -0.449393,-0.431447 -0.57242,0.137923 -1.0069401,0.137923 0.4345201,2e-6 0.5575471,0.569374 1.0069401,0.137917 -0.40373,0.446907 -0.141589,0.81645 0.124311,0.81645 0.409733,0 0.301927,-0.499951 0.489429,-0.495688 -0.07567,0.16205 0.104175,0.222296 0.195452,0.150504 0.115875,-0.103263 0.07494,-0.322044 -0.112279,-0.322768 -0.373743,0 -0.262429,0.554884 -0.566229,0.501507 -0.07021,-0.01235 -0.116109,-0.07648 -0.108906,-0.193059 0.01299,-0.210158 0.147963,-0.363025 0.35102,-0.363025 h 0.908541 c -0.0023,0.321794 -0.08072,0.633756 -0.312646,0.699084 l 0.53836,4.62256 0.538361,-4.62256 c -0.231913,-0.06532 -0.310367,-0.37729 -0.312645,-0.699084 h 0.90854 c 0.203058,0 0.33805,0.15286 0.35102,0.363025 0.0072,0.116584 -0.03869,0.18072 -0.108905,0.193059 -0.303803,0.0534 -0.192475,-0.501507 -0.56623,-0.501507 -0.187218,7.49e-4 -0.228153,0.219497 -0.112279,0.322768 0.09128,0.07179 0.271137,0.01154 0.195453,-0.150504 0.187488,-0.0043 0.07969,0.495688 0.489429,0.495688 0.2659,0 0.528043,-0.369543 0.12431,-0.81645 0.449393,0.431444 0.57242,-0.137917 1.006941,-0.137917 -0.434521,0 -0.557548,-0.569372 -1.006941,-0.137923 0.40373,-0.446906 0.14159,-0.81645 -0.12431,-0.81645 -0.409733,0 -0.301928,0.499976 -0.489429,0.495685 0.07567,-0.162049 -0.104175,-0.222293 -0.195453,-0.1505 -0.115874,0.103263 -0.07494,0.322043 0.112279,0.322768 0.373744,0 0.26243,-0.554914 0.56623,-0.50151 0.07021,0.01235 0.116107,0.07649 0.108905,0.193069 -0.01298,0.210157 -0.147962,0.363022 -0.35102,0.363022 h -0.908486 v -0.439382 c 0,-0.351129 -0.0091,-0.655819 0.302569,-0.655234 0.26425,5e-4 0.304125,0.450863 0.0039,0.440806 0.07158,-0.165046 -0.166382,-0.198326 -0.182951,-0.05783 -0.01608,0.136344 0.120969,0.185103 0.206686,0.188557 0.406598,0.01639 0.537771,-0.491008 0.259617,-0.880414 -0.214037,-0.299645 -0.778868,-0.551626 -0.815661,-1.069795 z" />
</svg>
