<?xml version="1.0" encoding="UTF-8" standalone="no"?>
<svg
   xmlns:dc="http://purl.org/dc/elements/1.1/"
   xmlns:cc="http://creativecommons.org/ns#"
   xmlns:rdf="http://www.w3.org/1999/02/22-rdf-syntax-ns#"
   xmlns:svg="http://www.w3.org/2000/svg"
   xmlns="http://www.w3.org/2000/svg"
   xmlns:sodipodi="http://sodipodi.sourceforge.net/DTD/sodipodi-0.dtd"
   xmlns:inkscape="http://www.inkscape.org/namespaces/inkscape"
   id="svg8"
   version="1.1"
   viewBox="0 0 43.899937 50.851597"
   height="50.851597mm"
   width="43.899933mm"
   inkscape:version="0.48.4 r9939"
   sodipodi:docname="Version2.svg"
   inkscape:export-filename="/home/ines/Escritorio/Satrday/Version2.png"
   inkscape:export-xdpi="300"
   inkscape:export-ydpi="300">
  <sodipodi:namedview
     pagecolor="#ffffff"
     bordercolor="#666666"
     borderopacity="1"
     objecttolerance="10"
     gridtolerance="10"
     guidetolerance="10"
     inkscape:pageopacity="0"
     inkscape:pageshadow="2"
     inkscape:window-width="1861"
     inkscape:window-height="1056"
     id="namedview32"
     showgrid="false"
     inkscape:zoom="3.7046193"
     inkscape:cx="113.52526"
     inkscape:cy="63.996772"
     inkscape:window-x="59"
     inkscape:window-y="24"
     inkscape:window-maximized="1"
     inkscape:current-layer="svg8" />
  <defs
     id="defs2">
    <clipPath
       id="clipPath16429"
       clipPathUnits="userSpaceOnUse">
      <path
         style="opacity:1;vector-effect:none;fill:#2165b6;fill-opacity:1;fill-rule:nonzero;stroke:none;stroke-width:1.5715543;stroke-linecap:butt;stroke-linejoin:round;stroke-miterlimit:4;stroke-dasharray:none;stroke-dashoffset:0;stroke-opacity:1;paint-order:normal"
         id="path16431"
         d="M 201.08333,-1.3279266 70.566552,-76.68182 l -4e-6,-150.70779 130.516772,-75.35391 130.51678,75.3539 10e-6,150.707793 z"
         transform="matrix(0.16817761,0,0,0.16853807,31.673538,-48.729121)" />
    </clipPath>
    <clipPath
       id="clipPath6975"
       clipPathUnits="userSpaceOnUse">
      <path
         transform="matrix(0.1157537,0,0,0.1160018,54.550292,192.37129)"
         d="M 201.08333,-1.3279266 70.566552,-76.68182 l -4e-6,-150.70779 130.516772,-75.35391 130.51678,75.3539 10e-6,150.707793 z"
         id="path6977"
         style="opacity:0.5;vector-effect:none;fill:#2165b6;fill-opacity:1;fill-rule:nonzero;stroke:none;stroke-width:1.5715543;stroke-linecap:butt;stroke-linejoin:round;stroke-miterlimit:4;stroke-dasharray:none;stroke-dashoffset:0;stroke-opacity:1;paint-order:normal" />
    </clipPath>
    <clipPath
       id="clipPath45"
       clipPathUnits="userSpaceOnUse">
      <path
         transform="matrix(0.16817761,0,0,0.16853807,-11.867746,297.17217)"
         d="M 201.08333,-1.3279266 70.566552,-76.68182 l -4e-6,-150.70779 130.516772,-75.35391 130.51678,75.3539 10e-6,150.707793 z"
         id="path47"
         style="opacity:1;vector-effect:none;fill:#2165b6;fill-opacity:1;fill-rule:nonzero;stroke:none;stroke-width:1.5715543;stroke-linecap:butt;stroke-linejoin:round;stroke-miterlimit:4;stroke-dasharray:none;stroke-dashoffset:0;stroke-opacity:1;paint-order:normal" />
    </clipPath>
  </defs>
  <metadata
     id="metadata5">
    <rdf:RDF>
      <cc:Work
         rdf:about="">
        <dc:format>image/svg+xml</dc:format>
        <dc:type
           rdf:resource="http://purl.org/dc/dcmitype/StillImage" />
        <dc:title></dc:title>
      </cc:Work>
    </rdf:RDF>
  </metadata>
  <path
     inkscape:connector-curvature="0"
     style="fill:#2165b6;fill-opacity:1;stroke:none"
     d="M 9.6446921e-7,38.125797 3.427628e-6,12.725798 21.94997,0.02579804 43.899934,12.7258 l 0,25.4 -21.949966,12.700001 z"
     id="path967" />
  <path
     inkscape:connector-curvature="0"
     d="m 2.3668209,30.043814 c 0,0 -2.55901058,-4.069142 -2.51636063,-5.268467 0.0426444,-1.199327 2.68696193,-5.396965 2.68696193,-5.396965 l 0.063973,-4.69022 2.0258835,0.06425 0.085303,1.04941 L 10.342405,7.0852911 12.389612,8.1132846 6.2479883,17.686473 21.4741,4.0013107 22.966857,5.2648866 7.9113446,19.292712 32.563144,6.314297 33.501455,8.070452 8.8922989,21.263032 40.666684,13.553083 l 0.469145,1.884654 -31.518477,8.159699 34.631933,0.36408 0,2.013152 L 9.7879519,25.717672 41.306434,34.541282 40.858605,36.425936 8.6577229,28.094906 33.672045,42.251232 32.520494,44.050221 7.6554434,30.150893 22.455055,44.906881 21.09025,46.363206 6.0773871,31.799965 11.515284,41.78007 9.7026519,42.829479 4.4993308,33.920202 l -0.042644,0.878076 -2.2391347,0 0.1492762,-4.754467 z"
     style="fill:#e9bf1e;stroke:#000000;stroke-width:0.08548305"
     id="path2030" />
  <path
     inkscape:connector-curvature="0"
     id="path3359"
     style="font-size:19.85914993px;font-style:normal;font-variant:normal;font-weight:900;font-stretch:normal;text-align:start;line-height:1.25;letter-spacing:0px;word-spacing:0px;writing-mode:lr-tb;text-anchor:start;fill:#ffffff;fill-opacity:1;stroke:none;font-family:Arial;-inkscape-font-specification:'Arial, Heavy'"
     d="M 14.966027,32.54125 V 18.31042 h 7.313284 q 2.034158,0 3.109356,0.34946 1.075198,0.34947 1.733877,1.30078 0.65868,0.9416 0.65868,2.30061 0,1.18429 -0.503696,2.04823 -0.503696,0.85424 -1.385165,1.38814 -0.561815,0.33975 -1.540148,0.56301 0.784604,0.2621 1.143003,0.52419 0.242162,0.17474 0.697426,0.74746 0.464951,0.57273 0.619933,0.88336 l 2.121338,4.12559 H 23.974443 L 21.630317,28.1924 Q 21.18474,27.34787 20.836027,27.09548 20.36139,26.76543 19.760829,26.76543 H 19.37337 v 5.77582 z m 4.407343,-8.46473 h 1.850115 q 0.300281,0 1.162377,-0.19414 0.435891,-0.0874 0.707112,-0.44653 0.280907,-0.35917 0.280907,-0.82512 0,-0.68921 -0.43589,-1.05809 Q 22.5021,21.18377 21.300977,21.18377 H 19.37337 z" />
  <path
     inkscape:connector-curvature="0"
     id="path3362"
     style="font-size:9.86572075px;font-style:normal;font-variant:normal;font-weight:normal;font-stretch:condensed;text-align:start;line-height:1.25;letter-spacing:0px;word-spacing:0px;writing-mode:lr-tb;text-anchor:start;fill:#ffffff;fill-opacity:1;stroke:none;font-family:Agency FB;-inkscape-font-specification:'Agency FB, Condensed'"
     d="m 6.3143253,28.67372 q 0,0.23629 -0.1491748,0.38579 Q 6.0207878,29.209 5.7849955,29.209 H 3.8890326 q -0.2357923,0 -0.3897791,-0.14949 -0.1491748,-0.1495 -0.1491748,-0.38579 v -1.9145 H 4.018959 v 1.85662 H 5.6454449 V 26.81709 L 3.5666227,24.29978 q -0.216544,-0.26041 -0.216544,-0.57386 v -1.52871 q 0,-0.23629 0.1491748,-0.38579 0.1539868,-0.14949 0.3897791,-0.14949 h 1.8959629 q 0.2357923,0 0.380155,0.14949 0.1491748,0.1495 0.1491748,0.38579 v 1.75536 H 5.6454449 V 22.25508 H 4.018959 v 1.5914 l 2.0884465,2.5173 q 0.2069198,0.25076 0.2069198,0.56422 z" />
  <path
     inkscape:connector-curvature="0"
     id="path3364"
     style="font-size:9.86572075px;font-style:normal;font-variant:normal;font-weight:normal;font-stretch:condensed;text-align:start;line-height:1.25;letter-spacing:0px;word-spacing:0px;writing-mode:lr-tb;text-anchor:start;fill:#ffffff;fill-opacity:1;stroke:none;font-family:Agency FB;-inkscape-font-specification:'Agency FB, Condensed'"
     d="M 10.534526,29.209 H 9.8704585 L 9.6057937,27.5308 H 8.1092341 L 7.8445693,29.209 h -0.64482 V 29.1897 L 8.5423221,21.64263 H 9.2015782 z M 9.519176,26.93765 8.8599199,22.84824 8.1958517,26.93765 z" />
  <path
     inkscape:connector-curvature="0"
     id="path3366"
     style="font-size:9.86572075px;font-style:normal;font-variant:normal;font-weight:normal;font-stretch:condensed;text-align:start;line-height:1.25;letter-spacing:0px;word-spacing:0px;writing-mode:lr-tb;text-anchor:start;fill:#ffffff;fill-opacity:1;stroke:none;font-family:Agency FB;-inkscape-font-specification:'Agency FB, Condensed'"
     d="M 14.037727,22.25508 H 12.873202 V 29.209 h -0.66888 v -6.95392 h -1.17415 v -0.59315 h 3.007555 z" />
  <path
     inkscape:connector-curvature="0"
     id="path3369"
     style="font-size:9.86572075px;font-style:normal;font-variant:normal;font-weight:normal;font-stretch:condensed;text-align:start;line-height:1.25;letter-spacing:0px;word-spacing:0px;writing-mode:lr-tb;text-anchor:start;fill:#ffffff;fill-opacity:1;stroke:none;font-family:Agency FB;-inkscape-font-specification:'Agency FB, Condensed'"
     d="m 32.03771,27.84426 q 0,0.59798 -0.394591,0.98377 Q 31.25334,29.209 30.65664,29.209 h -1.722727 v -7.54707 h 1.722727 q 0.601511,0 0.991291,0.38579 0.389779,0.38097 0.389779,0.97895 z m -0.66888,-0.0675 v -4.69221 q 0,-0.37133 -0.235792,-0.59798 -0.230981,-0.23148 -0.601512,-0.23148 h -0.928733 v 6.36076 h 0.890237 q 0.389779,0 0.630383,-0.22182 0.245417,-0.22666 0.245417,-0.61727 z" />
  <path
     inkscape:connector-curvature="0"
     id="path3371"
     style="font-size:9.86572075px;font-style:normal;font-variant:normal;font-weight:normal;font-stretch:condensed;text-align:start;line-height:1.25;letter-spacing:0px;word-spacing:0px;writing-mode:lr-tb;text-anchor:start;fill:#ffffff;fill-opacity:1;stroke:none;font-family:Agency FB;-inkscape-font-specification:'Agency FB, Condensed'"
     d="m 36.243475,29.209 h -0.664068 l -0.264665,-1.6782 h -1.49656 l -0.264665,1.6782 h -0.64482 v -0.0193 l 1.342573,-7.54707 h 0.659257 z M 35.228124,26.93765 34.568868,22.84824 33.9048,26.93765 z" />
  <path
     inkscape:connector-curvature="0"
     id="path3373"
     style="font-size:9.86572075px;font-style:normal;font-variant:normal;font-weight:normal;font-stretch:condensed;text-align:start;line-height:1.25;letter-spacing:0px;word-spacing:0px;writing-mode:lr-tb;text-anchor:start;fill:#ffffff;fill-opacity:1;stroke:none;font-family:Agency FB;-inkscape-font-specification:'Agency FB, Condensed'"
     d="m 40.179764,21.70533 -0.914297,3.05258 q -0.173236,0.45813 -0.457149,1.52871 V 29.209 h -0.66888 v -2.92238 q -0.06737,-0.3665 -0.206921,-0.77159 -0.230979,-0.69442 -0.250227,-0.75712 l -0.914297,-3.05258 q 0,-0.005 0,-0.0434 h 0.678504 l 1.034599,3.77594 1.024975,-3.77594 h 0.673693 q 0,0.0337 0,0.0434 z" />
</svg>
